<svg width="20" height="20" viewBox="0 0 20 20" fill="none" xmlns="http://www.w3.org/2000/svg">
<g clip-path="url(#clip0_8716_159190)">
<path d="M3.33331 7.49999C4.71402 7.49999 5.83331 6.38071 5.83331 5C5.83331 3.61929 4.71402 2.5 3.33331 2.5C1.9526 2.5 0.833313 3.61929 0.833313 5C0.833313 6.38071 1.9526 7.49999 3.33331 7.49999Z" fill="#BFBFBF"/>
<path d="M6.07501 9.22516C5.23626 9.74855 4.5445 10.4768 4.06486 11.3413C3.58522 12.2058 3.33348 13.1782 3.33334 14.1668H1.66667C1.22505 14.1655 0.801889 13.9895 0.489613 13.6772C0.177337 13.3649 0.00131894 12.9418 0 12.5002L0 10.8335C0.00197841 10.1711 0.266006 9.53632 0.73442 9.06791C1.20283 8.5995 1.83757 8.33547 2.5 8.3335H4.16667C4.53048 8.33432 4.88973 8.41453 5.21933 8.56854C5.54894 8.72254 5.84096 8.94663 6.07501 9.22516Z" fill="#BFBFBF"/>
<path d="M16.6667 7.49999C18.0474 7.49999 19.1667 6.38071 19.1667 5C19.1667 3.61929 18.0474 2.5 16.6667 2.5C15.286 2.5 14.1667 3.61929 14.1667 5C14.1667 6.38071 15.286 7.49999 16.6667 7.49999Z" fill="#BFBFBF"/>
<path d="M20 10.8335V12.5002C19.9987 12.9418 19.8227 13.3649 19.5104 13.6772C19.1981 13.9895 18.7749 14.1655 18.3333 14.1668H16.6667C16.6665 13.1782 16.4148 12.2058 15.9351 11.3413C15.4555 10.4768 14.7637 9.74855 13.925 9.22516C14.159 8.94663 14.4511 8.72254 14.7807 8.56854C15.1103 8.41453 15.4695 8.33432 15.8333 8.3335H17.5C18.1624 8.33547 18.7972 8.5995 19.2656 9.06791C19.734 9.53632 19.998 10.1711 20 10.8335Z" fill="#BFBFBF"/>
<path d="M10 9.16667C11.841 9.16667 13.3334 7.67429 13.3334 5.83334C13.3334 3.99239 11.841 2.5 10 2.5C8.15907 2.5 6.66669 3.99239 6.66669 5.83334C6.66669 7.67429 8.15907 9.16667 10 9.16667Z" fill="#BFBFBF"/>
<path d="M15 14.1667V15C14.998 15.6624 14.734 16.2972 14.2656 16.7656C13.7972 17.234 13.1624 17.498 12.5 17.5H7.5C6.83757 17.498 6.20283 17.234 5.73442 16.7656C5.26601 16.2972 5.00198 15.6624 5 15V14.1667C5 13.0616 5.43899 12.0018 6.22039 11.2204C7.00179 10.439 8.0616 10 9.16667 10H10.8333C11.9384 10 12.9982 10.439 13.7796 11.2204C14.561 12.0018 15 13.0616 15 14.1667Z" fill="#BFBFBF"/>
</g>
<defs>
<clipPath id="clip0_8716_159190">
<rect width="20" height="20" fill="white"/>
</clipPath>
</defs>
</svg>
