<svg width="16" height="16" viewBox="0 0 16 16" fill="none" xmlns="http://www.w3.org/2000/svg">
<path d="M3.45455 13.9986C3.55707 13.9981 3.65639 13.9671 3.73636 13.9106L8 10.911L12.2591 13.9106C12.3259 13.9583 12.4067 13.9884 12.4921 13.9972C12.5775 14.0061 12.6641 13.9935 12.7417 13.9608C12.8193 13.9282 12.8847 13.8768 12.9304 13.8127C12.9762 13.7486 13.0003 13.6744 13 13.5987V2.39995C13 2.29388 12.9521 2.19215 12.8669 2.11714C12.7816 2.04214 12.666 2 12.5455 2H3.45455C3.33399 2 3.21838 2.04214 3.13313 2.11714C3.04789 2.19215 3 2.29388 3 2.39995V13.5987C3.00024 13.6741 3.02469 13.7479 3.07053 13.8115C3.11637 13.8752 3.18174 13.9262 3.25909 13.9586C3.31952 13.9859 3.38665 13.9996 3.45455 13.9986ZM8 9.99909C7.89591 9.9987 7.79482 10.0298 7.71364 10.0871L3.90909 12.7668V2.79991H12.0909V12.7668L8.28182 10.0871C8.20184 10.0306 8.10253 9.99961 8 9.99909Z" fill="#8F8F8F"/>
</svg>
