<svg width="17" height="16" viewBox="0 0 17 16" fill="none" xmlns="http://www.w3.org/2000/svg">
<path d="M2.18347 15.9918C1.7912 16.0149 1.40541 15.883 1.10746 15.6239C0.519844 15.0259 0.519844 14.0601 1.10746 13.4621L13.9743 0.445451C14.5855 -0.133099 15.5445 -0.100937 16.1164 0.517347C16.6336 1.07646 16.6637 1.93583 16.187 2.53058L3.24432 15.6239C2.95021 15.8792 2.57061 16.0109 2.18347 15.9918Z" fill="#B0B0B0"/>
<path d="M15.0354 15.9917C14.6378 15.99 14.2568 15.8304 13.9745 15.5471L1.10758 2.53044C0.563186 1.88732 0.637199 0.919449 1.27293 0.368668C1.84033 -0.122889 2.67714 -0.122889 3.24449 0.368668L16.1872 13.3853C16.7982 13.964 16.8298 14.9342 16.2577 15.5524C16.235 15.577 16.2115 15.6007 16.1872 15.6238C15.8702 15.9026 15.4532 16.0358 15.0354 15.9917Z" fill="#B0B0B0"/>
</svg>
