<svg width="40" height="40" viewBox="0 0 40 40" fill="none" xmlns="http://www.w3.org/2000/svg">
<path d="M31.1213 17.8787C32.2929 19.0502 32.2929 20.9497 31.1213 22.1213C29.9497 23.2929 28.0502 23.2929 26.8787 22.1213C25.7071 20.9497 25.7071 19.0502 26.8787 17.8787C28.0502 16.7071 29.9497 16.7071 31.1213 17.8787Z" fill="#8F8F8F"/>
<path d="M22.1213 17.8787C23.2929 19.0502 23.2929 20.9497 22.1213 22.1213C20.9497 23.2929 19.0502 23.2929 17.8787 22.1213C16.7071 20.9497 16.7071 19.0502 17.8787 17.8787C19.0502 16.7071 20.9497 16.7071 22.1213 17.8787Z" fill="#8F8F8F"/>
<path d="M13.1213 17.8787C14.2929 19.0502 14.2929 20.9497 13.1213 22.1213C11.9497 23.2929 10.0502 23.2929 8.87868 22.1213C7.70711 20.9497 7.70711 19.0502 8.87868 17.8787C10.0502 16.7071 11.9497 16.7071 13.1213 17.8787Z" fill="#8F8F8F"/>
</svg>
