<svg width="20" height="20" viewBox="0 0 20 20" fill="none" xmlns="http://www.w3.org/2000/svg">
<path fill-rule="evenodd" clip-rule="evenodd" d="M3.69478 2.76407e-05H16.2455C17.209 -0.00515167 17.9945 0.718211 17.9999 1.61562V14.0204C18.0047 14.5329 17.7452 15.0164 17.3021 15.3203L11.0018 19.6657C10.7125 19.8798 10.3545 19.9974 9.98502 20C9.60465 19.9905 9.23624 19.874 8.92835 19.6657L2.69787 15.3203C2.25483 15.0164 1.99525 14.5329 2.00007 14.0204V1.62489C1.99441 0.743324 2.74852 0.0202661 3.69478 2.76407e-05ZM10.3617 3.72159C10.2175 3.41577 9.78239 3.41577 9.63815 3.72159L8.56953 5.98733C8.51269 6.10783 8.39959 6.19212 8.26788 6.21215L5.84939 6.57988C5.52695 6.62891 5.39556 7.02248 5.62389 7.25537L7.39648 9.06339C7.48568 9.15437 7.5262 9.2824 7.50559 9.40812L7.0903 11.9418C7.03633 12.2711 7.38548 12.5178 7.67783 12.357L9.80713 11.1856C9.92718 11.1196 10.0727 11.1196 10.1927 11.1856L12.322 12.357C12.6144 12.5178 12.9635 12.2711 12.9096 11.9418L12.4943 9.40812C12.4737 9.2824 12.5142 9.15437 12.6034 9.06339L14.376 7.25537C14.6043 7.02248 14.4729 6.62891 14.1505 6.57988L11.732 6.21215C11.6003 6.19212 11.4872 6.10783 11.4303 5.98733L10.3617 3.72159Z" fill="#B0B0B0"/>
</svg>
