<svg width="38" height="38" viewBox="0 0 38 38" fill="none" xmlns="http://www.w3.org/2000/svg">
<path d="M38 20.292C38 31.6287 30.3367 38 19 38C7.66333 38 0 31.6287 0 20.292C0 8.52467 7.24533 0 19 0C30.7547 0 38 8.52467 38 20.292Z" fill="#FED132"/>
<path d="M29.8046 20.6211C26.5113 19.4178 22.458 19.0125 19 18.9998C15.5166 18.9871 11.4506 19.4178 8.1953 20.6211C6.81464 21.1405 7.40997 22.4578 7.62531 23.0911C9.32264 27.8411 13.68 31.2738 18.9873 31.2611C23.9526 31.2358 28.4493 28.3605 30.6153 22.3818C30.8813 21.6598 30.514 20.8745 29.8046 20.6211Z" fill="#802D21"/>
<path d="M28.6393 21.571C26.0299 20.7351 22.5593 20.2664 18.9493 20.2664C15.276 20.2664 11.8813 20.7351 9.25929 21.5964C9.41129 22.6604 10.6146 23.433 18.9493 23.433C27.3473 23.433 28.5126 22.6477 28.6393 21.571Z" fill="white"/>
<path d="M23.9653 28.7406C23.2306 27.3093 20.254 26.4226 18.9746 27.8539C17.6953 26.4226 14.7186 27.3093 13.984 28.7406C17.062 30.3999 20.8746 30.4126 23.9653 28.7406Z" fill="#F55151"/>
<path d="M16.4033 13.9712C14.7567 11.4379 12.4007 9.67721 10.412 9.03121C9.76599 8.81587 9.25932 9.62654 9.76599 10.1205C10.3993 10.7412 11.3113 11.5899 12.3627 12.8185C10.2093 12.7932 8.14465 13.5405 6.48532 14.8199C5.92799 15.2505 6.38399 16.1625 7.08065 15.9345C9.62665 15.1239 12.122 14.7312 14.858 15.8332C16.0233 16.2892 17.0747 15.0099 16.4033 13.9712Z" fill="#802D21"/>
<path d="M21.508 13.9712C23.1547 11.4379 25.5107 9.67721 27.4993 9.03121C28.1453 8.81587 28.652 9.62654 28.1453 10.1205C27.512 10.7412 26.6 11.5899 25.5487 12.8185C27.702 12.7932 29.7667 13.5405 31.426 14.8199C31.9833 15.2505 31.5273 16.1625 30.8307 15.9345C28.2847 15.1239 25.7893 14.7312 23.0533 15.8332C21.9007 16.2892 20.8367 15.0099 21.508 13.9712Z" fill="#802D21"/>
</svg>
