<svg width="16" height="16" viewBox="0 0 16 16" fill="none" xmlns="http://www.w3.org/2000/svg">
<path d="M14.3182 4.50017H12.2468L12.9307 1.8815C13.0282 1.50839 12.8127 1.12413 12.4487 1.02403C12.0846 0.923924 11.7102 1.14579 11.6135 1.5189L10.8355 4.50017H5.99318L6.67708 1.8815C6.77459 1.50839 6.55911 1.12413 6.19506 1.02403C5.83088 0.924693 5.45735 1.14579 5.36047 1.5189L4.58181 4.50017H2.04546C1.66905 4.50017 1.36368 4.81304 1.36368 5.20012C1.36368 5.58732 1.66905 5.90019 2.04546 5.90019H4.21564L3.11863 10.1001H0.681778C0.305496 10.1001 0 10.413 0 10.8001C0 11.1871 0.305496 11.5 0.681778 11.5H2.75321L2.06931 14.1187C1.9718 14.4918 2.18728 14.8761 2.55133 14.9762C2.61001 14.9923 2.66931 15 2.72724 15C3.02799 15 3.30415 14.7942 3.3853 14.4813L4.16458 11.5H9.00682L8.32292 14.1187C8.22554 14.4918 8.44089 14.8761 8.80507 14.9762C8.86362 14.9923 8.92292 15 8.9816 15C9.28235 15 9.55838 14.7942 9.63953 14.4813L10.4182 11.5H12.9545C13.3309 11.5 13.6364 11.1871 13.6364 10.8001C13.6364 10.413 13.3309 10.1001 12.9545 10.1001H10.7844L11.8814 5.90019H14.3182C14.6946 5.90019 15 5.58732 15 5.20012C15 4.81304 14.6946 4.50017 14.3182 4.50017ZM9.37224 10.1001H4.53L5.62701 5.90019H10.4694L9.37224 10.1001Z" fill="#B0B0B0"/>
</svg>
