<svg width="16" height="16" viewBox="0 0 16 16" fill="none" xmlns="http://www.w3.org/2000/svg">
<path d="M0.551933 6.55874C-0.00583518 6.55874 -0.147042 6.96106 0.156553 7.35667L1.87928 9.62308C2.11933 9.93823 2.48647 9.93153 2.71946 9.62308L4.44219 7.34997C4.73873 6.96776 4.60458 6.55874 4.05387 6.55874H3.03012C3.67261 4.15152 5.95311 2.38801 8.69959 2.38801C11.9403 2.38801 14.5385 4.85558 14.5385 7.93333C14.5385 11.0111 11.9403 13.4921 8.69959 13.4854C6.81447 13.4787 5.16235 12.6405 4.10329 11.3195C3.81382 11.0044 3.3902 10.9038 3.04424 11.1452C2.71946 11.3665 2.65592 11.8023 2.97364 12.1711C4.27274 13.7804 6.41909 14.8667 8.69959 14.8667C12.6958 14.8667 16 11.7286 16 7.93333C16 4.1381 12.6958 1 8.69959 1C5.19059 1 2.21818 3.40722 1.54038 6.55874H0.551933ZM8.43835 4.05093C8.0924 4.05093 7.81704 4.31244 7.81704 4.6343V8.2686C7.81704 8.42953 7.87353 8.57705 7.99355 8.73127L9.67392 10.8368C9.92809 11.1519 10.2952 11.2055 10.5988 10.9977C10.8883 10.8032 10.9165 10.4478 10.6906 10.1595L9.05261 8.06744V4.6343C9.05261 4.31244 8.77725 4.05093 8.43835 4.05093Z" fill="#8F8F8F"/>
</svg>
