<svg width="20" height="20" viewBox="0 0 20 20" fill="none" xmlns="http://www.w3.org/2000/svg">
<path fill-rule="evenodd" clip-rule="evenodd" d="M6.66669 19.2592H13.3334V2.96293C13.3334 2.1407 12.6667 1.48145 11.8519 1.48145H8.14817C7.33335 1.48145 6.66669 2.1407 6.66669 2.96293V19.2592ZM9.62967 8.88885V5.66663L8.62967 5.97774V5.29626L10.3704 4.66663H10.4593V8.88885H9.62967Z" fill="#BFBFBF"/>
<path fill-rule="evenodd" clip-rule="evenodd" d="M0 19.2591H6.66667V5.92578H1.48148C0.666667 5.92578 0 6.58504 0 7.40726V19.2591ZM3.54076 9.15541C3.43705 9.0443 3.2889 8.98504 3.13335 8.99245C2.96298 8.98504 2.80001 9.05912 2.6889 9.19245C2.57038 9.3406 2.51853 9.52578 2.52594 9.71097H1.6815C1.6815 9.46652 1.74076 9.22208 1.86668 9.00726C1.99261 8.79245 2.17038 8.61467 2.3852 8.50356C2.62224 8.38504 2.8815 8.32578 3.14816 8.32578C3.51113 8.29615 3.87409 8.41467 4.16298 8.63689C4.41483 8.85912 4.54816 9.18504 4.52594 9.51838C4.52594 9.7406 4.46668 9.96282 4.36298 10.1554C4.21483 10.4295 4.02224 10.6887 3.80742 10.911L2.85187 11.9184H4.65927V12.5924H1.77038V12.0147L3.13335 10.5628C3.2889 10.3999 3.42964 10.2221 3.54816 10.0295C3.62964 9.90356 3.6815 9.75541 3.6815 9.59986C3.6889 9.43689 3.64446 9.28134 3.54076 9.15541Z" fill="#BFBFBF"/>
<path fill-rule="evenodd" clip-rule="evenodd" d="M13.3333 19.259H20V10.3702C20 9.54793 19.3333 8.88867 18.5185 8.88867H13.3333V19.259ZM15.4074 15.2813C15.1407 15.0664 14.9926 14.7405 15.0074 14.3998L15.8444 14.3924C15.837 14.5479 15.9037 14.6887 16.0222 14.785C16.1407 14.8887 16.2963 14.9405 16.4593 14.9331C16.6296 14.9405 16.7926 14.8887 16.9259 14.7776C17.0445 14.6664 17.1037 14.5109 17.0963 14.3553C17.0963 13.9405 16.8593 13.7257 16.4 13.7257H15.963V13.0739H16.4074C16.5778 13.0887 16.7482 13.0294 16.8815 12.9183C16.9852 12.8072 17.0445 12.6516 17.037 12.4961C17.0445 12.3479 16.9852 12.1998 16.8815 12.0961C16.7704 11.9998 16.6222 11.9479 16.4667 11.9553C16.3185 11.9553 16.1778 11.9998 16.0593 12.0887C15.9556 12.1702 15.8963 12.2961 15.8963 12.4294H15.0593C15.0519 12.222 15.1185 12.0146 15.237 11.8368C15.363 11.659 15.5333 11.5183 15.7333 11.4294C15.9556 11.3257 16.1926 11.2813 16.437 11.2813C16.8074 11.259 17.1852 11.3702 17.4815 11.5998C17.7333 11.822 17.8741 12.1479 17.8593 12.4813C17.8593 12.6739 17.8 12.859 17.6815 13.0146C17.5704 13.1776 17.4074 13.3109 17.2222 13.3924C17.437 13.4664 17.6222 13.5998 17.7556 13.7776C17.8741 13.9553 17.9407 14.1627 17.9333 14.3776C17.9482 14.7257 17.7926 15.059 17.5259 15.2813C17.2148 15.5183 16.8296 15.6368 16.437 15.6146C16.0667 15.6294 15.7037 15.5109 15.4074 15.2813Z" fill="#BFBFBF"/>
</svg>
