<svg width="20" height="20" viewBox="0 0 20 20" fill="none" xmlns="http://www.w3.org/2000/svg">
<path d="M17.5198 13.1898C17.8571 12.7596 18.0189 12.2984 17.9982 11.8234C17.9776 11.3002 17.7435 10.8906 17.5508 10.6393C17.7745 10.0817 17.8606 9.20403 17.1137 8.52252C16.5664 8.02344 15.6371 7.79971 14.3498 7.86166C13.4445 7.90297 12.6873 8.07162 12.6563 8.07851H12.6529C12.4808 8.10948 12.2984 8.14735 12.1125 8.18865C12.0987 7.96836 12.1366 7.42109 12.5427 6.18887C13.0246 4.72259 12.9971 3.60051 12.4532 2.85016C11.8819 2.06196 10.9698 2 10.7013 2C10.4431 2 10.2056 2.1067 10.037 2.30289C9.65493 2.74691 9.69967 3.56609 9.74786 3.94471C9.29352 5.16316 8.01999 8.15079 6.94266 8.9803C6.92201 8.99407 6.9048 9.01128 6.88759 9.02849C6.57093 9.36236 6.35753 9.72377 6.21296 10.0404C6.00989 9.93028 5.77928 9.86833 5.53145 9.86833H3.43186C2.64021 9.86833 2 10.512 2 11.3002V16.8934C2 17.685 2.64365 18.3252 3.43186 18.3252H5.53145C5.83779 18.3252 6.12347 18.2289 6.35753 18.0636L7.16639 18.16C7.2903 18.1772 9.49315 18.456 11.7545 18.4113C12.1641 18.4423 12.5496 18.4595 12.9076 18.4595C13.5237 18.4595 14.0606 18.4113 14.5081 18.3149C15.5613 18.0912 16.2807 17.6437 16.6456 16.9863C16.9244 16.4838 16.9244 15.9847 16.8796 15.668C17.5646 15.0485 17.685 14.3635 17.6609 13.8817C17.6472 13.6029 17.5852 13.3654 17.5198 13.1898ZM3.43186 17.3959C3.15306 17.3959 2.92933 17.1687 2.92933 16.8934V11.2967C2.92933 11.0179 3.1565 10.7942 3.43186 10.7942H5.53145C5.81025 10.7942 6.03398 11.0214 6.03398 11.2967V16.8899C6.03398 17.1687 5.80681 17.3925 5.53145 17.3925H3.43186V17.3959ZM16.6387 12.7871C16.4941 12.9386 16.4666 13.1692 16.5767 13.3482C16.5767 13.3516 16.7178 13.5925 16.735 13.923C16.7591 14.3739 16.5423 14.7731 16.088 15.1139C15.9262 15.2378 15.8608 15.4512 15.9296 15.6439C15.9296 15.6474 16.0776 16.1017 15.8367 16.532C15.6061 16.945 15.0932 17.241 14.3153 17.4062C13.6923 17.5405 12.8456 17.5646 11.8062 17.4819C11.7924 17.4819 11.7752 17.4819 11.758 17.4819C9.54478 17.5301 7.30751 17.241 7.28341 17.2376H7.27997L6.93233 17.1963C6.95298 17.0999 6.96331 16.9966 6.96331 16.8934V11.2967C6.96331 11.1487 6.93922 11.0042 6.89791 10.8699C6.95987 10.6393 7.13197 10.1265 7.53812 9.68935C9.08356 8.46401 10.5946 4.33021 10.66 4.15123C10.6875 4.07895 10.6944 3.99978 10.6806 3.92062C10.6221 3.53512 10.6428 3.06357 10.7254 2.92245C10.9078 2.92589 11.4 2.97752 11.696 3.38711C12.0471 3.87243 12.0333 4.7398 11.6547 5.88942C11.0765 7.64138 11.0283 8.56382 11.4861 8.96997C11.7132 9.17305 12.0161 9.18338 12.2364 9.10421C12.4464 9.05602 12.646 9.01472 12.8353 8.98374C12.8491 8.9803 12.8663 8.97686 12.88 8.97342C13.9367 8.74281 15.8298 8.60169 16.4872 9.20059C17.0448 9.71 16.649 10.3846 16.6042 10.4569C16.4769 10.6497 16.5148 10.9009 16.6869 11.0558C16.6903 11.0592 17.0517 11.4 17.0689 11.8578C17.0827 12.1641 16.9381 12.4773 16.6387 12.7871Z" fill="#676767"/>
</svg>
