<svg width="16" height="16" viewBox="0 0 16 16" fill="none" xmlns="http://www.w3.org/2000/svg">
<path d="M2.70264 2.70941C3.80238 1.60708 5.26455 1 6.81976 1C8.37497 1 9.83718 1.60708 10.9369 2.70941C12.8139 4.59088 13.1388 7.44786 11.9119 9.66728L14.5386 12.3002C15.1538 12.9169 15.1538 13.9202 14.5386 14.5368C14.2406 14.8355 13.8444 15 13.423 15C13.0015 15 12.6053 14.8355 12.3074 14.5368L9.69229 11.9156C8.82625 12.4095 7.84317 12.6724 6.81976 12.6724C5.2645 12.6724 3.80233 12.0653 2.70264 10.963C0.432453 8.68744 0.432453 4.98493 2.70264 2.70941ZM3.73329 9.92988C4.55773 10.7562 5.65383 11.2113 6.81971 11.2113C7.98558 11.2113 9.08173 10.7562 9.90613 9.92988C11.6079 8.22403 11.6079 5.44833 9.90613 3.74253C9.08168 2.91615 7.98558 2.46107 6.81971 2.46107C5.65383 2.46107 4.55769 2.91615 3.73329 3.74253C2.03149 5.44838 2.03149 8.22403 3.73329 9.92988Z" fill="#363636"/>
</svg>
