<svg width="20" height="20" viewBox="0 0 20 20" fill="none" xmlns="http://www.w3.org/2000/svg">
<path d="M11.8074 13.5472C12.9481 13.0287 13.9407 12.2138 14.6741 11.1916C16.0741 9.25829 16.0741 6.63607 14.6741 4.70273C13.9407 3.68051 12.9555 2.8731 11.8148 2.34718C10.5778 1.76199 9.22961 1.4657 7.86664 1.48051C6.50368 1.4657 5.15553 1.76199 3.9185 2.34718C2.77776 2.8731 1.78516 3.68051 1.05924 4.70273C0.377756 5.64347 0.00738525 6.78421 0.00738525 7.94718C0.00738525 8.94718 0.281459 9.92495 0.799978 10.7768C1.34813 11.6805 2.08887 12.4435 2.97776 13.0138C2.90368 13.2138 2.82961 13.399 2.74813 13.5694C2.66664 13.7398 2.57776 13.9027 2.46664 14.0583C2.35553 14.2138 2.27405 14.3398 2.21479 14.4213C2.15553 14.5101 2.05924 14.6361 1.9259 14.7916C1.79257 14.9546 1.70368 15.0583 1.66664 15.1101C1.66664 15.1027 1.65183 15.1175 1.6222 15.1694C1.59257 15.2138 1.57776 15.2361 1.57035 15.2287C1.56294 15.2213 1.54813 15.2435 1.5259 15.2953L1.48146 15.3694L1.45183 15.4361C1.44442 15.4583 1.43701 15.4879 1.42961 15.5101C1.4222 15.5398 1.4222 15.562 1.4222 15.5916C1.4222 15.6213 1.4222 15.6435 1.43701 15.6731C1.44442 15.7768 1.49627 15.8657 1.56294 15.9398C1.6222 15.999 1.70368 16.0361 1.79257 16.0435H1.8222C2.14813 15.9916 2.46664 15.925 2.78516 15.8435C3.9185 15.5175 4.97035 14.962 5.88887 14.2287C6.53331 14.362 7.19257 14.4287 7.85183 14.4287C9.2222 14.4213 10.5703 14.125 11.8074 13.5472Z" fill=""/>
<path d="M19.2074 14.014C20.2815 12.2436 20.2593 10.0288 19.163 8.27325C18.5926 7.35473 17.8074 6.58436 16.8889 6.02881C17.0593 6.65103 17.1482 7.30288 17.1482 7.94733C17.1556 9.05844 16.8963 10.1547 16.4 11.1547C15.8815 12.1918 15.1556 13.1029 14.2593 13.8288C13.3852 14.5473 12.3852 15.0955 11.3111 15.4584C10.2 15.8362 9.03705 16.0288 7.85927 16.0288C7.63705 16.0288 7.31112 16.014 6.87408 15.977C8.40001 17.0955 10.2519 17.6807 12.1408 17.6436C12.8 17.6436 13.4593 17.577 14.1037 17.4436C15.0222 18.1844 16.0741 18.7325 17.2074 19.0584C17.5259 19.1473 17.8445 19.214 18.1704 19.2584C18.2593 19.2658 18.3482 19.2362 18.4148 19.1695C18.4963 19.0955 18.5482 18.9992 18.563 18.8955C18.563 18.8436 18.563 18.814 18.5704 18.814C18.5852 18.8066 18.5778 18.7844 18.563 18.7325L18.5408 18.6584L18.5111 18.5992C18.4963 18.577 18.4889 18.5547 18.4741 18.5325C18.4593 18.5103 18.4445 18.4881 18.4296 18.4658C18.4148 18.451 18.4 18.4288 18.3778 18.3992C18.3556 18.3696 18.3408 18.3473 18.3333 18.3399C18.2963 18.2881 18.2074 18.1844 18.0741 18.0214C17.9408 17.8584 17.8445 17.7399 17.7852 17.651C17.7259 17.5621 17.6445 17.4436 17.5333 17.2881C17.4296 17.1325 17.3333 16.9696 17.2519 16.7992C17.1704 16.6288 17.0963 16.4436 17.0222 16.2436C17.9185 15.6733 18.6667 14.9103 19.2074 14.014Z" fill=""/>
</svg>
