<svg width="16" height="16" viewBox="0 0 16 16" fill="none" xmlns="http://www.w3.org/2000/svg">
<path d="M13.6667 4.64225C13.6667 5.03286 13.5923 5.38967 13.4435 5.71268C13.3025 6.03568 13.1185 6.33239 12.8913 6.60282C12.6642 6.87324 12.4097 7.12113 12.1278 7.34648C11.8536 7.57183 11.5835 7.7784 11.3172 7.9662C11.0587 8.15399 10.816 8.33052 10.5888 8.49577C10.3696 8.65352 10.2051 8.80376 10.0954 8.94648C10.0485 9.00657 9.99364 9.10047 9.93098 9.22817C9.86833 9.34836 9.837 9.48732 9.837 9.64507C9.837 10.0507 9.70387 10.385 9.43759 10.6479C9.17915 10.9108 8.7719 11.0423 8.21586 11.0423C7.8791 11.0423 7.60108 10.9934 7.38179 10.8958C7.17034 10.7906 6.99804 10.6629 6.8649 10.5127C6.7396 10.3624 6.64954 10.2009 6.59471 10.0282C6.54772 9.8554 6.52423 9.69765 6.52423 9.55493C6.52423 9.04413 6.61429 8.61596 6.79442 8.27042C6.97455 7.92488 7.20166 7.62817 7.47577 7.38028C7.74988 7.12488 8.04356 6.90329 8.35683 6.71549C8.67009 6.5277 8.96378 6.33239 9.23789 6.12958C9.51199 5.92676 9.73911 5.70141 9.91924 5.45352C10.0994 5.19812 10.1894 4.88263 10.1894 4.50704C10.1894 4.11643 10.1189 3.80845 9.97797 3.5831C9.84484 3.35775 9.67646 3.19249 9.47283 3.08732C9.27704 2.97465 9.06951 2.90704 8.85022 2.88451C8.63877 2.85446 8.45864 2.83944 8.30984 2.83944C7.91826 2.83944 7.60499 2.89577 7.37004 3.00845C7.1351 3.11361 6.95497 3.24883 6.82966 3.41408C6.71219 3.57934 6.63387 3.76338 6.59471 3.9662C6.56339 4.1615 6.54772 4.3493 6.54772 4.52958C6.54772 4.82254 6.48899 5.07418 6.37151 5.28451C6.25404 5.48732 6.10524 5.65258 5.92511 5.78028C5.75281 5.90798 5.56094 6.00188 5.34949 6.06197C5.14586 6.12207 4.95791 6.15211 4.78561 6.15211C4.25306 6.15211 3.82232 6.01315 3.49339 5.73521C3.16446 5.44977 3 5.08545 3 4.64225C3 4.44695 3.02349 4.19531 3.07048 3.88732C3.11747 3.57934 3.20754 3.25258 3.34068 2.90704C3.47381 2.5615 3.66177 2.21596 3.90455 1.87042C4.14733 1.52488 4.46451 1.21315 4.85609 0.935211C5.24768 0.657277 5.7254 0.431925 6.28928 0.259155C6.85316 0.086385 7.52668 0 8.30984 0C9.19481 0 9.97014 0.116432 10.6358 0.349296C11.3093 0.574648 11.8693 0.893897 12.3157 1.30704C12.7621 1.71268 13.0989 2.20094 13.326 2.77183C13.5531 3.33521 13.6667 3.95869 13.6667 4.64225ZM10.2364 14.1296C10.2364 14.7681 10.068 15.2413 9.73128 15.5493C9.39452 15.8498 8.92071 16 8.30984 16C7.68331 16 7.20166 15.8498 6.8649 15.5493C6.52815 15.2413 6.35977 14.7681 6.35977 14.1296C6.35977 13.4836 6.52815 13.0141 6.8649 12.7211C7.20166 12.4282 7.68331 12.2817 8.30984 12.2817C8.95986 12.2817 9.44151 12.4282 9.75477 12.7211C10.0759 13.0141 10.2364 13.4836 10.2364 14.1296Z" fill="#B0B0B0"/>
</svg>
