<svg width="38" height="38" viewBox="0 0 38 38" fill="none" xmlns="http://www.w3.org/2000/svg">
<path d="M38 20.1245C38 31.3675 30.3367 37.6862 19 37.6862C7.66333 37.6862 0 31.3675 0 20.1245C0 8.45428 7.24533 0 19 0C30.7547 0 38 8.45428 38 20.1245Z" fill="#FED132"/>
<path d="M14.0727 14.2706C13.338 16.0419 10.7413 16.0419 10.0067 14.2706C9.728 13.5923 9.614 12.8511 9.69 12.1225C9.956 9.40908 14.1233 9.40908 14.402 12.1225C14.4653 12.8511 14.3513 13.5923 14.0727 14.2706Z" fill="#802D21"/>
<path d="M23.9274 14.2706C24.6621 16.0419 27.2587 16.0419 27.9934 14.2706C28.2721 13.5923 28.3861 12.8511 28.3101 12.1225C28.0441 9.40908 23.8767 9.40908 23.5981 12.1225C23.5347 12.8511 23.6487 13.5923 23.9274 14.2706Z" fill="#802D21"/>
<path d="M13.68 20.1118C14.4907 20.0741 15.2634 19.9485 16.036 19.7098C16.8087 19.4586 17.594 19.0943 18.544 18.7049C19.0127 18.5164 19.5574 18.328 20.1527 18.2275C20.7607 18.1144 21.4194 18.0893 22.0527 18.2149C23.3194 18.4662 24.32 19.0817 25.1434 19.7475C25.688 20.1872 25.7767 20.9786 25.3334 21.5188C24.928 22.0087 24.2314 22.1218 23.6994 21.8077L23.636 21.77C22.9267 21.3429 22.23 21.0289 21.622 20.9535C21.318 20.9158 21.0267 20.9409 20.6974 20.9912C20.5327 21.0289 20.3554 21.0791 20.178 21.1293C19.988 21.2047 19.8107 21.255 19.608 21.3429C18.7974 21.6444 17.8727 22.0966 16.8214 22.373C15.77 22.6494 14.6427 22.7624 13.566 22.6494C12.8694 22.574 12.3627 21.9584 12.4387 21.2675C12.502 20.6394 13.0214 20.1621 13.642 20.1369L13.68 20.1118Z" fill="#802D21"/>
<path d="M14.4907 4.98713C13.338 5.50217 12.046 6.08003 11.2734 6.58251C10.26 7.23574 9.33536 8.03971 8.46136 8.96931C8.25869 9.18286 7.95469 9.1703 7.76469 9.00699C7.61269 8.86881 7.57469 8.66782 7.63802 8.49195C8.13202 7.16037 9.04402 5.97953 10.2094 5.10019C11.4 4.19572 12.8314 3.55505 14.3134 3.74348C14.668 3.79373 14.9214 4.12034 14.8834 4.47208C14.858 4.68564 14.7314 4.88663 14.4907 4.98713Z" fill="#D97818"/>
<path d="M22.1286 7.67478C23.3953 7.72503 24.8013 7.76272 25.7133 7.92602C26.9039 8.13958 28.0692 8.529 29.2346 9.06917C29.5006 9.19479 29.7792 9.06917 29.8806 8.84306C29.9692 8.66719 29.9312 8.45363 29.7919 8.31545C28.8292 7.2728 27.5246 6.53163 26.1186 6.15477C24.6746 5.77791 23.0913 5.72766 21.7993 6.45626C21.4826 6.63213 21.3813 7.03412 21.5586 7.34817C21.6726 7.5366 21.8626 7.66222 22.1286 7.67478Z" fill="#D97818"/>
<path d="M21.0372 23.679C14.1972 26.5808 13.3612 26.7316 12.2972 26.6059C9.97916 26.317 10.8278 23.7167 10.7898 22.2594C10.7518 20.2998 9.02916 20.0862 8.21849 20.9656C7.40782 21.8575 6.41982 28.8545 6.38182 30.0479C6.22982 34.9472 10.5872 37.648 17.9718 35.6883C20.1125 35.123 20.0618 32.887 19.2005 32.7614C20.3658 31.7815 19.9732 30.3369 18.9725 30.2238C20.2138 29.3822 20.0998 28.0631 19.2385 27.5983C21.5058 26.5054 22.7472 25.8522 23.1525 25.2744C23.7732 24.4327 23.1018 22.8122 21.0372 23.679Z" fill="white"/>
<path d="M23.1778 23.2896C21.7592 22.2847 20.3785 23.7042 14.6152 25.8397C13.0065 26.405 11.3598 26.7442 11.1192 25.0483C10.9545 23.8926 11.4485 22.6239 11.1572 21.4807C10.7138 19.722 8.56051 19.4833 7.59784 21.0159C7.06584 21.9832 6.55917 25.6513 6.17917 28.0884C5.90051 29.7842 5.88784 31.3419 6.57184 32.9248C7.66117 35.3492 10.0045 36.4421 12.6265 36.618C14.3492 36.7311 16.3378 36.4421 18.0352 36.0904C19.9732 35.6507 20.6192 33.9046 19.9985 32.8996C19.8338 32.6233 19.8212 32.8996 20.0998 32.4474C20.5685 31.656 20.4418 30.8018 19.8972 30.2365C19.7452 30.0983 19.7452 30.1988 19.8972 30.0229C20.4925 29.2943 20.4925 28.327 19.9478 27.7115C20.9738 27.2467 22.1772 26.6814 22.9752 26.091C23.4185 25.7393 23.7605 25.4126 23.8492 24.7845C23.9125 24.2444 23.6845 23.6288 23.1778 23.2896ZM17.0092 28.327C16.6545 28.5155 16.9205 29.0556 17.2878 28.8923C17.9465 28.616 18.6052 28.327 19.2638 28.0381C19.5678 28.4903 19.4792 29.0556 19.1498 29.4576C18.7065 30.0355 18.0225 30.3118 17.4272 30.6385C17.1612 30.7892 17.2878 31.1409 17.5538 31.1284C18.2125 31.0656 18.7572 30.8897 19.1625 30.651C19.4412 30.8897 19.5805 31.4424 19.2638 31.9952C18.9218 32.6107 18.1872 32.9624 17.6045 33.2765C17.3258 33.4272 17.4652 33.7915 17.7312 33.7664C18.3012 33.7036 18.7572 33.578 19.2512 33.2891C19.3652 33.6785 19.2385 34.181 19.0105 34.5201C18.7445 34.9221 18.2758 35.1734 17.8198 35.3241C16.1605 35.814 14.6532 36.1532 12.6645 36.0025C8.83917 35.701 6.86317 33.5152 6.78717 30.5003C6.73651 29.3446 6.95184 28.5029 7.40784 25.9277C7.64851 24.6338 8.06651 22.0586 8.39584 21.5058C8.69984 20.9908 9.37117 20.8024 9.80184 21.0662C11.1192 21.8576 9.38384 25.0358 10.9798 26.4302C11.5752 26.9578 12.8292 27.0583 13.6145 26.895C15.4512 26.5432 19.1625 24.9604 21.2905 24.0936C22.4432 23.6414 22.9625 24.1187 22.8992 24.7092C22.8992 25.488 20.4418 26.4679 17.0092 28.327Z" fill="#9BAFBA"/>
</svg>
