<svg width="20" height="20" viewBox="0 0 20 20" fill="none" xmlns="http://www.w3.org/2000/svg">
<path d="M3.06667 18C2.85107 18 2.6568 17.861 2.57427 17.6473C2.49147 17.4341 2.53707 17.1886 2.68933 17.0251C2.70027 17.0129 3.6932 15.9414 4.4328 14.7584C2.88067 13.361 2 11.4453 2 9.42857C2 5.33257 5.5888 2 10 2C14.4112 2 18 5.33257 18 9.42857C18 13.5246 14.4112 16.8571 10 16.8571C9.36507 16.8571 8.72293 16.7829 8.08667 16.6367C6.26093 17.9827 3.20107 18 3.06667 18ZM10 3.14286C6.1768 3.14286 3.06667 5.96257 3.06667 9.42857C3.06667 11.2416 3.93773 12.9693 5.45707 14.1686C5.6776 14.3427 5.73907 14.6674 5.5992 14.9203C5.22973 15.5871 4.7604 16.2394 4.35387 16.7567C5.37333 16.6227 6.76667 16.308 7.63773 15.5731C7.76613 15.4643 7.93413 15.423 8.0932 15.4666C8.7268 15.6311 9.36827 15.7143 10 15.7143C13.8232 15.7143 16.9333 12.8946 16.9333 9.42857C16.9333 5.96257 13.8232 3.14286 10 3.14286Z" fill="#676767"/>
</svg>
