<svg width="16" height="16" viewBox="0 0 16 16" fill="none" xmlns="http://www.w3.org/2000/svg">
<path d="M15.0383 6.73472C14.9729 6.7241 14.9066 6.7192 14.8403 6.72006H3.55262L3.79875 6.60564C4.03934 6.49183 4.25821 6.33694 4.44556 6.14797L7.61091 2.98433C8.02779 2.58659 8.09784 1.94675 7.7769 1.4683C7.40338 0.958466 6.68706 0.847767 6.17691 1.22109C6.1357 1.25127 6.09653 1.28416 6.05972 1.31956L0.335755 7.04043C-0.111572 7.48701 -0.111966 8.21145 0.334861 8.65854C0.335147 8.65882 0.335469 8.65915 0.335755 8.65943L6.05972 14.3803C6.5074 14.8265 7.23223 14.8255 7.6787 14.378C7.71383 14.3428 7.74664 14.3054 7.7769 14.2659C8.09784 13.7874 8.02779 13.1476 7.61091 12.7499L4.45128 9.58049C4.28332 9.41244 4.09021 9.27153 3.87889 9.16287L3.53545 9.0084H14.7773C15.3621 9.03011 15.8752 8.62182 15.9851 8.0473C16.0863 7.42355 15.6624 6.83591 15.0383 6.73472Z" fill="#B0B0B0"/>
</svg>
