<svg width="40" height="40" viewBox="0 0 40 40" fill="none" xmlns="http://www.w3.org/2000/svg">
<path d="M12.4323 12.442C14.0034 10.8673 16.0922 10 18.3139 10C20.5357 10 22.6245 10.8673 24.1955 12.442C26.877 15.1298 27.3412 19.2112 25.5884 22.3818L29.3409 26.1432C30.2197 27.0241 30.2197 28.4574 29.3409 29.3383C28.9152 29.765 28.3492 30 27.7471 30C27.145 30 26.5791 29.765 26.1534 29.3383L22.4176 25.5937C21.1804 26.2992 19.776 26.6748 18.3139 26.6748C16.0921 26.6748 14.0033 25.8076 12.4323 24.2329C9.18922 20.982 9.18922 15.6928 12.4323 12.442ZM13.9047 22.757C15.0825 23.9375 16.6483 24.5876 18.3139 24.5876C19.9794 24.5876 21.5453 23.9375 22.723 22.757C25.1542 20.32 25.1542 16.3548 22.723 13.9179C21.5453 12.7374 19.9794 12.0872 18.3139 12.0872C16.6483 12.0872 15.0824 12.7374 13.9047 13.9179C11.4736 16.3548 11.4736 20.32 13.9047 22.757Z" fill="white"/>
</svg>
