<svg width="20" height="20" viewBox="0 0 20 20" fill="none" xmlns="http://www.w3.org/2000/svg">
<path d="M1.6 17.9994C1.55425 17.9994 1.50805 17.9941 1.4623 17.9833C1.19155 17.9171 1 17.6695 1 17.3841C1 11.7922 1.6897 7.14161 10 6.93008V2.61529C10 2.37068 10.1411 2.14961 10.3593 2.05161C10.5766 1.95423 10.8314 1.99638 11.0072 2.16345L18.8073 9.54785C18.9303 9.66369 19 9.82784 19 9.99968C19 10.1715 18.9303 10.3357 18.8073 10.4517L11.0072 17.8361C10.832 18.0031 10.5772 18.0464 10.3593 17.9479C10.1411 17.8498 10 17.6287 10 17.3841V13.0837C4.2994 13.2237 3.2476 15.3806 2.1367 17.6593C2.03365 17.8715 1.8232 17.9994 1.6 17.9994ZM10.6 11.8458C10.9317 11.8458 11.2 12.121 11.2 12.4612V15.9784L17.5153 9.99968L11.2 4.02094V7.53822C11.2 7.87836 10.9317 8.15358 10.6 8.15358C3.9718 8.15358 2.54455 10.7827 2.2639 14.9822C3.50665 13.27 5.6248 11.8458 10.6 11.8458Z" fill="#676767"/>
</svg>
