<svg width="38" height="38" viewBox="0 0 38 38" fill="none" xmlns="http://www.w3.org/2000/svg">
<path d="M19 38C29.4934 38 38 29.4934 38 19C38 8.50659 29.4934 0 19 0C8.50659 0 0 8.50659 0 19C0 29.4934 8.50659 38 19 38Z" fill="url(#paint0_radial)"/>
<path d="M11.0073 28.4812H13.0699C13.8657 28.48 14.5106 27.8352 14.5118 27.0393V17.5562C14.5106 16.7604 13.8657 16.1155 13.0699 16.1143H11.0073C10.2115 16.1155 9.56659 16.7604 9.56543 17.5562V27.0372C9.56543 27.8339 10.2106 28.48 11.0073 28.4812Z" fill="white"/>
<path d="M20.102 10.1375C19.2766 10.1375 18.8649 10.5597 18.8649 12.6117C18.8649 14.5708 16.9649 16.1457 15.7489 16.9585V27.1699C18.2965 28.2501 21.0474 28.7671 23.8133 28.6857H25.1328C26.7408 28.6874 28.1146 27.5269 28.3818 25.9412L29.3022 20.5875C29.4687 19.6288 29.203 18.6457 28.5763 17.9014C27.9497 17.1571 27.0262 16.7277 26.0532 16.7283H22.1646C22.6027 15.6856 22.8135 14.5614 22.7831 13.4308C22.9384 11.7851 21.7449 10.3192 20.102 10.1375Z" fill="white"/>
<defs>
<radialGradient id="paint0_radial" cx="0" cy="0" r="1" gradientUnits="userSpaceOnUse" gradientTransform="translate(19.8341 4.598) scale(33.4504)">
<stop stop-color="#DC3A3F"/>
<stop offset="1" stop-color="#80171A"/>
</radialGradient>
</defs>
</svg>
