<svg width="16" height="16" viewBox="0 0 16 16" fill="none" xmlns="http://www.w3.org/2000/svg">
<path d="M12.8 2.64062H10.8V2.23047C10.8 1.55199 10.2617 1 9.6 1H6.4C5.73832 1 5.2 1.55199 5.2 2.23047V2.64062H3.2C2.53832 2.64062 2 3.19261 2 3.87109C2 4.416 2.34733 4.87901 2.8268 5.04034L3.54027 13.8717C3.59165 14.5044 4.11693 15 4.73611 15H11.2639C11.8831 15 12.4084 14.5044 12.4598 13.8715L13.1732 5.04031C13.6527 4.87901 14 4.416 14 3.87109C14 3.19261 13.4617 2.64062 12.8 2.64062ZM6 2.23047C6 2.00431 6.17944 1.82031 6.4 1.82031H9.6C9.82056 1.82031 10 2.00431 10 2.23047V2.64062H6V2.23047ZM11.6625 13.8036C11.6454 14.0145 11.4703 14.1797 11.2639 14.1797H4.73611C4.52973 14.1797 4.35464 14.0145 4.33755 13.8038L3.63451 5.10156H12.3655L11.6625 13.8036ZM12.8 4.28125H3.2C2.97944 4.28125 2.8 4.09725 2.8 3.87109C2.8 3.64493 2.97944 3.46094 3.2 3.46094H12.8C13.0206 3.46094 13.2 3.64493 13.2 3.87109C13.2 4.09725 13.0206 4.28125 12.8 4.28125Z" fill="#8F8F8F"/>
<path d="M6.12413 13.6273L5.65538 6.06477C5.63935 5.80636 5.41569 5.60983 5.15854 5.62592C4.90013 5.64195 4.70366 5.86439 4.71966 6.12277L5.18841 13.6853C5.20382 13.9338 5.41019 14.125 5.65582 14.125C5.92728 14.125 6.14078 13.8964 6.12413 13.6273Z" fill="#8F8F8F"/>
<path d="M8 5.625C7.74112 5.625 7.53125 5.83487 7.53125 6.09375V13.6562C7.53125 13.9151 7.74112 14.125 8 14.125C8.25888 14.125 8.46875 13.9151 8.46875 13.6562V6.09375C8.46875 5.83487 8.25888 5.625 8 5.625Z" fill="#8F8F8F"/>
<path d="M10.8415 5.62592C10.5837 5.60988 10.3607 5.80635 10.3447 6.06476L9.87591 13.6273C9.85994 13.8856 10.0564 14.1081 10.3148 14.1241C10.5733 14.1401 10.7956 13.9435 10.8116 13.6853L11.2804 6.12276C11.2964 5.86435 11.0999 5.64192 10.8415 5.62592Z" fill="#8F8F8F"/>
</svg>
