<svg width="16" height="16" viewBox="0 0 16 16" fill="none" xmlns="http://www.w3.org/2000/svg">
<path d="M13.6484 2H2.35156C2.15741 2 2 2.15741 2 2.35156V13.6484C2 13.8426 2.15741 14 2.35156 14H13.6484C13.8426 14 14 13.8426 14 13.6484V2.35156C14 2.15741 13.8426 2 13.6484 2ZM12.5938 12.2422C12.5938 12.4363 12.4363 12.5938 12.2422 12.5938H3.75781C3.56366 12.5938 3.40625 12.4363 3.40625 12.2422C3.40625 12.0448 3.40625 4.0112 3.40625 3.75781C3.40625 3.56366 3.56366 3.40625 3.75781 3.40625H12.2422C12.4363 3.40625 12.5938 3.56366 12.5938 3.75781V12.2422Z" fill="#B0B0B0"/>
<path d="M11.2424 9.88606C10.9103 10.1793 10.5339 10.5116 9.70438 10.5116C8.8403 10.5116 8.22041 9.7418 7.6209 8.9974C7.11641 8.37094 6.59473 7.72316 6.02312 7.67706C5.54509 7.63859 5.07716 7.89884 4.63445 8.45101C4.35378 8.80107 4.17418 9.15924 4.10938 9.29843V11.8906H11.8906V9.47454C11.614 9.558 11.4434 9.70854 11.2424 9.88606Z" fill="#B0B0B0"/>
<path d="M9.64062 5.30469C9.05907 5.30469 8.58594 5.77782 8.58594 6.35938C8.58594 6.94093 9.05907 7.41406 9.64062 7.41406C10.2222 7.41406 10.6953 6.94093 10.6953 6.35938C10.6953 5.77782 10.2222 5.30469 9.64062 5.30469Z" fill="#B0B0B0"/>
</svg>
