<svg width="16" height="16" viewBox="0 0 16 16" fill="none" xmlns="http://www.w3.org/2000/svg">
<g clip-path="url(#clip0)">
<path d="M14.7768 11.8111L9.42567 2.54258C9.12811 2.02721 8.59516 1.71948 7.99999 1.71948C7.40486 1.71948 6.87187 2.02721 6.57432 2.54258L1.22319 11.811C0.925605 12.3265 0.925605 12.9419 1.22319 13.4573C1.52077 13.9727 2.0537 14.2804 2.64886 14.2804H13.3511C13.9463 14.2804 14.4792 13.9726 14.7768 13.4573C15.0744 12.9419 15.0744 12.3265 14.7768 11.8111ZM14.0665 13.0472C13.9172 13.3058 13.6497 13.4602 13.3511 13.4602H2.64886C2.35021 13.4602 2.08279 13.3058 1.93349 13.0472C1.7842 12.7886 1.7842 12.4798 1.93349 12.2212L7.28468 2.95271C7.43398 2.69409 7.7014 2.53971 8.00002 2.53971C8.29861 2.53971 8.56606 2.69409 8.71536 2.95271L14.0665 12.2212C14.2158 12.4798 14.2158 12.7886 14.0665 13.0472Z" fill="#8F8F8F"/>
<path d="M8.41005 5.81274H7.58984V9.91381H8.41005V5.81274Z" fill="#8F8F8F"/>
<path d="M8.00001 10.734C7.69849 10.734 7.45319 10.9793 7.45319 11.2808C7.45319 11.5823 7.69849 11.8276 8.00001 11.8276C8.3015 11.8276 8.54683 11.5823 8.54683 11.2808C8.54683 10.9793 8.30153 10.734 8.00001 10.734Z" fill="#8F8F8F"/>
</g>
<defs>
<clipPath id="clip0">
<rect width="14" height="14" fill="white" transform="translate(1 1)"/>
</clipPath>
</defs>
</svg>
