<svg width="38" height="38" viewBox="0 0 38 38" fill="none" xmlns="http://www.w3.org/2000/svg">
<path d="M38 20.292C38 31.6287 30.3367 38 19 38C7.66333 38 0 31.6287 0 20.292C0 8.52467 7.24533 0 19 0C30.7547 0 38 8.52467 38 20.292Z" fill="#F55151"/>
<path d="M12.1727 26.3592C13.11 24.1299 15.9093 22.6606 19 22.6479C21.7107 22.6352 24.89 23.8386 25.8147 26.3592C26.03 26.9419 25.4093 27.4739 24.8647 27.1826C23.104 26.2199 20.9633 25.8399 18.9747 25.8146C16.378 25.7766 14.668 26.3212 13.1353 27.1699C12.4893 27.5246 11.9447 26.8912 12.1727 26.3592Z" fill="#802D21"/>
<path d="M14.0727 17.9485C13.338 19.7345 10.7413 19.7345 10.0067 17.9485C9.72799 17.2645 9.61399 16.5172 9.68999 15.7825C9.95599 13.0465 14.1233 13.0465 14.402 15.7825C14.4527 16.5172 14.3513 17.2519 14.0727 17.9485Z" fill="#802D21"/>
<path d="M23.9273 17.9485C24.662 19.7345 27.2587 19.7345 27.9933 17.9485C28.272 17.2645 28.386 16.5171 28.31 15.7825C28.044 13.0465 23.8767 13.0465 23.598 15.7825C23.5347 16.5171 23.6487 17.2518 23.9273 17.9485Z" fill="#802D21"/>
<path d="M15.238 13.4392C14.3133 12.5779 13.2873 11.6026 12.5273 11.0833C11.5393 10.3993 10.4373 9.85458 9.22132 9.41125C8.94266 9.30992 8.84132 9.03125 8.92998 8.79059C8.99332 8.60059 9.17065 8.48659 9.36065 8.47392C10.792 8.41059 12.236 8.80325 13.5026 9.53792C14.7946 10.2853 15.9473 11.3619 16.34 12.8059C16.4286 13.1606 16.226 13.5153 15.884 13.6166C15.656 13.6546 15.428 13.6166 15.238 13.4392Z" fill="#802D21"/>
<path d="M22.762 13.4012C23.6866 12.5399 24.7126 11.5645 25.4726 11.0452C26.4606 10.3612 27.5626 9.81654 28.7786 9.3732C29.0573 9.27187 29.1587 8.9932 29.07 8.75253C29.0067 8.56253 28.8293 8.44853 28.6393 8.43587C27.208 8.37253 25.764 8.7652 24.4973 9.49987C23.2053 10.2472 22.0527 11.3239 21.66 12.7679C21.5713 13.1225 21.774 13.4772 22.116 13.5785C22.3313 13.6292 22.5593 13.5785 22.762 13.4012Z" fill="#802D21"/>
</svg>
