<svg width="40" height="40" viewBox="0 0 40 40" fill="none" xmlns="http://www.w3.org/2000/svg">
<circle cx="20" cy="20" r="20" fill="#DDDDDD"/>
<path d="M19.5121 25.8383C23.3778 25.8383 26.512 22.0197 26.512 17.3094C26.512 10.7774 23.378 8.78052 19.5121 8.78052C15.6461 8.78052 12.5123 10.7774 12.5123 17.3094C12.5124 22.0197 15.6462 25.8383 19.5121 25.8383Z" fill="#F9F9F9"/>
<path fill-rule="evenodd" clip-rule="evenodd" d="M5.85364 34.1488L7.57579 30.1102C7.73747 29.7311 8.02093 29.417 8.37427 29.2256L13.8546 26.2555C13.9754 26.1902 14.1218 26.2029 14.2307 26.2885C15.7808 27.509 17.6033 28.1541 19.5014 28.1541C21.3992 28.1541 23.2218 27.509 24.7719 26.2885C24.8806 26.2029 25.0269 26.1902 25.1478 26.2555L30.6284 29.2256C30.9816 29.417 31.2654 29.7313 31.4269 30.1102L33.4309 34.8096C29.8798 38.0346 25.164 40 19.9891 40C14.4697 40 9.4724 37.7641 5.85364 34.1488Z" fill="#F9F9F9"/>
</svg>
