<svg width="20" height="20" viewBox="0 0 20 20" fill="none" xmlns="http://www.w3.org/2000/svg">
<path d="M18.4411 14.0942C17.0803 13.0292 16.3 11.4725 16.3 9.82333V7.5C16.3 4.5675 13.9474 2.14 10.9 1.73333V0.833333C10.9 0.3725 10.4968 0 10 0C9.5032 0 9.1 0.3725 9.1 0.833333V1.73333C6.0517 2.14 3.7 4.5675 3.7 7.5V9.82333C3.7 11.4725 2.9197 13.0292 1.5508 14.1008C1.2007 14.3783 1 14.7817 1 15.2083C1 16.0125 1.7065 16.6667 2.575 16.6667H17.425C18.2935 16.6667 19 16.0125 19 15.2083C19 14.7817 18.7993 14.3783 18.4411 14.0942Z" fill="#BFBFBF"/>
<path d="M9.99996 20C11.6299 20 12.9934 18.9242 13.3066 17.5H6.69336C7.00656 18.9242 8.37006 20 9.99996 20Z" fill="#BFBFBF"/>
</svg>
