<svg width="20" height="20" viewBox="0 0 20 20" fill="none" xmlns="http://www.w3.org/2000/svg">
<path d="M10 20C15.5228 20 20 15.5228 20 10C20 4.47715 15.5228 0 10 0C4.47715 0 0 4.47715 0 10C0 15.5228 4.47715 20 10 20Z" fill="#FFAE2A"/>
<path d="M9.99992 18.9473C14.9414 18.9473 18.9473 14.9415 18.9473 9.99998C18.9473 5.05849 14.9414 1.05261 9.99992 1.05261C5.05842 1.05261 1.05255 5.05849 1.05255 9.99998C1.05255 14.9415 5.05842 18.9473 9.99992 18.9473Z" stroke="#FFBE4E" stroke-width="2"/>
<path d="M8.52807 14.7368C8.70899 14.7368 8.86541 14.6708 8.99733 14.5389C9.12926 14.407 9.19522 14.2506 9.19522 14.0696V11.9664C9.19522 11.9061 9.2216 11.876 9.27437 11.876H10.4617C11.1703 11.876 11.7978 11.7723 12.3444 11.565C12.8909 11.3577 13.3338 11.026 13.673 10.57C14.0122 10.1139 14.1819 9.55793 14.1819 8.90209C14.1819 7.01749 12.9192 6.0752 10.3938 6.0752H7.78177C7.60085 6.0752 7.44443 6.14116 7.31251 6.27308C7.18059 6.405 7.11462 6.56142 7.11462 6.74234V14.0696C7.11462 14.2506 7.18059 14.407 7.31251 14.5389C7.44443 14.6708 7.60085 14.7368 7.78177 14.7368H8.52807ZM10.3486 10.2477H9.27437C9.2216 10.2477 9.19522 10.2175 9.19522 10.1572V7.79395C9.19522 7.73364 9.2216 7.70349 9.27437 7.70349H10.2921C10.9027 7.70349 11.3682 7.79583 11.6885 7.98052C12.0089 8.16521 12.1691 8.4724 12.1691 8.90209C12.1691 9.79915 11.5623 10.2477 10.3486 10.2477Z" fill="white"/>
</svg>
