<svg width="38" height="38" viewBox="0 0 38 38" fill="none" xmlns="http://www.w3.org/2000/svg">
<path d="M38 20.292C38 31.6287 30.3367 38 19 38C7.66333 38 0 31.6287 0 20.292C0 8.52467 7.24533 0 19 0C30.7547 0 38 8.52467 38 20.292Z" fill="#FED132"/>
<path d="M32.7941 33.4275C35.9101 22.8888 32.4014 17.4421 30.7421 13.1481C19.5827 13.1481 26.4734 11.8941 25.9794 27.7148C25.7767 34.2635 25.6374 35.4541 23.3574 36.1508C20.1401 36.7081 17.6954 36.6828 14.6301 36.1508C12.4641 35.4921 12.2107 34.5421 11.9954 27.7148C11.5014 11.8941 18.3921 13.1481 7.23273 13.1481C5.58607 17.4421 2.0774 22.8888 5.1934 33.4275C-0.0379333 36.5688 7.3214 38.0001 19.0001 38.0001C30.6787 38.0001 38.0381 36.5688 32.7941 33.4275Z" fill="#28BEEF"/>
<path d="M5.89012 13.3507C7.06812 11.9447 8.84145 11.0707 10.6908 11.134C12.4641 11.1847 14.2121 12.3374 15.0355 14.326C15.1621 14.6427 15.0101 14.9974 14.7061 15.124C14.5288 15.2 14.3388 15.1874 14.1868 15.0987C12.6415 14.2627 11.9701 13.7434 10.6021 13.6674C9.15812 13.5914 8.09412 13.9967 6.73879 14.3007L6.49812 14.3514C6.16879 14.4274 5.83945 14.212 5.76345 13.8827C5.72545 13.68 5.77612 13.49 5.89012 13.3507Z" fill="#802D21"/>
<path d="M32.11 13.3507C30.932 11.9447 29.1587 11.0707 27.3094 11.134C25.536 11.1847 23.788 12.3374 22.9647 14.326C22.838 14.6427 22.99 14.9974 23.294 15.124C23.4714 15.2 23.6614 15.1874 23.8134 15.0987C25.3587 14.2627 26.03 13.7434 27.398 13.6674C28.842 13.5914 29.906 13.9967 31.2614 14.3007L31.502 14.3514C31.8314 14.4274 32.1607 14.212 32.2367 13.8827C32.2747 13.68 32.224 13.49 32.11 13.3507Z" fill="#802D21"/>
<path d="M12.806 6.40938C11.6534 6.94138 10.3614 7.51138 9.5887 8.01804C8.57536 8.67671 7.6507 9.48738 6.77669 10.4247C6.57403 10.64 6.27003 10.6274 6.08003 10.4627C5.92803 10.3234 5.89003 10.1207 5.95336 9.94338C6.44736 8.60071 7.35936 7.41004 8.5247 6.52338C9.71536 5.61138 11.1467 4.96538 12.6287 5.15538C12.9834 5.20604 13.2367 5.53538 13.1987 5.89004C13.1734 6.10538 13.0467 6.30804 12.806 6.40938Z" fill="#D97818"/>
<path d="M25.194 6.40938C26.3466 6.94138 27.6386 7.51138 28.4113 8.01804C29.4246 8.67671 30.3493 9.48738 31.2233 10.4247C31.426 10.64 31.73 10.6274 31.92 10.4627C32.072 10.3234 32.11 10.1207 32.0466 9.94338C31.5526 8.60071 30.6406 7.41004 29.4753 6.52338C28.2846 5.61138 26.8533 4.96538 25.3713 5.15538C25.0166 5.20604 24.7633 5.53538 24.8013 5.89004C24.8266 6.10538 24.9533 6.30804 25.194 6.40938Z" fill="#D97818"/>
<path d="M19 20.6721C16.3527 20.6721 14.326 23.0534 14.7694 25.6754L15.314 28.9561C15.998 33.0981 22.002 33.0981 22.686 28.9561L23.2307 25.6754C23.674 23.0534 21.6474 20.6721 19 20.6721Z" fill="#802D21"/>
<path d="M21.5333 29.2093C21.5333 30.2606 20.5707 30.7926 19 30.7926C17.4293 30.7926 16.4667 30.2606 16.4667 29.2093C16.4667 28.158 18.278 27.5373 19 28.2593C19.76 27.4993 21.5333 28.158 21.5333 29.2093Z" fill="#F55151"/>
</svg>
