<svg width="20" height="20" viewBox="0 0 20 20" fill="none" xmlns="http://www.w3.org/2000/svg">
<path d="M15.244 1H5.40411C4.75889 1.00908 4.14357 1.27355 3.69297 1.73545C3.24237 2.19736 2.99324 2.81903 3.00014 3.46428V17.5434C2.99841 17.8246 3.07909 18.1001 3.23222 18.3359C3.38535 18.5718 3.60422 18.7576 3.86178 18.8704C4.1063 18.9859 4.37984 19.0255 4.64709 18.984C4.91433 18.9425 5.16301 18.8219 5.36103 18.6377L9.97079 14.5536C10.0761 14.4697 10.2067 14.424 10.3413 14.424C10.4759 14.424 10.6065 14.4697 10.7118 14.5536L15.3216 18.6377C15.5207 18.8199 15.7693 18.9391 16.036 18.9805C16.3028 19.0219 16.5758 18.9836 16.8208 18.8704C17.0784 18.7576 17.2972 18.5718 17.4504 18.3359C17.6035 18.1001 17.6842 17.8246 17.6824 17.5434V3.46428C17.6859 3.14189 17.6253 2.82203 17.5043 2.52319C17.3833 2.22436 17.2042 1.95249 16.9774 1.72332C16.7507 1.49414 16.4807 1.31221 16.1832 1.18806C15.8856 1.0639 15.5664 0.999982 15.244 1Z" fill="white"/>
</svg>
