<svg width="20" height="20" viewBox="0 0 20 20" fill="none" xmlns="http://www.w3.org/2000/svg">
<g clip-path="url(#clip0_8651_158127)">
<path d="M19.8286 6.35187C19.6957 6.21896 15.8239 2.34742 15.6856 2.2092C15.4571 1.98063 15.0867 1.9804 14.8578 2.20849L13.3238 3.7374C13.1926 3.73904 11.213 3.01843 9.58435 4.64713L5.48331 8.74817C5.25451 8.97697 5.25451 9.3479 5.48331 9.5767C6.62562 10.7191 8.48386 10.7183 9.62547 9.5767L10.2274 8.97478C11.2376 9.58998 12.5193 9.53319 13.4696 8.8421L15.8557 11.2282C16.1076 11.4801 16.3076 11.7703 16.4505 12.0847C17.2524 11.1376 17.8413 10.0299 18.1811 8.82222L19.8278 7.18142C20.0583 6.95101 20.0563 6.58036 19.8286 6.35187Z" fill="#BFBFBF"/>
<path d="M13.2576 10.2867C12.371 10.6374 11.3879 10.6655 10.4857 10.3734C8.36836 11.7939 6.47251 12.2228 4.65478 10.405C3.96814 9.7184 3.96775 8.60643 4.65478 7.91941L8.41367 4.16052L6.71154 3.83361L5.14299 2.26428C4.91373 2.03502 4.54268 2.03619 4.31419 2.26428L0.171365 6.40711C-0.0571216 6.63598 -0.0571216 7.00703 0.171365 7.23591C1.19311 8.25726 1.95121 9.57037 2.30664 10.9323C2.33163 10.9901 2.87453 13.6952 5.30743 15.7469L7.11423 17.2713C8.11644 18.1173 9.53774 18.1849 10.6087 17.4822L14.7476 14.7689C15.6793 14.159 15.816 12.8454 15.0269 12.0564L13.2576 10.2867Z" fill="#BFBFBF"/>
</g>
<defs>
<clipPath id="clip0_8651_158127">
<rect width="20" height="20" fill="white"/>
</clipPath>
</defs>
</svg>
