<svg width="20" height="20" viewBox="0 0 20 20" fill="none" xmlns="http://www.w3.org/2000/svg">
<path fill-rule="evenodd" clip-rule="evenodd" d="M10 0C4.48086 0 0 4.48086 0 10C0 15.5191 4.48086 20 10 20C15.5191 20 20 15.5191 20 10C20 4.48086 15.5191 0 10 0ZM9.94121 16.4134H9.94133C10.7227 16.4134 11.3562 15.78 11.3562 14.9986V14.9985C11.3562 14.217 10.7227 13.5836 9.94133 13.5836H9.94121C9.1598 13.5836 8.52633 14.217 8.52633 14.9985V14.9986C8.52633 15.78 9.1598 16.4134 9.94121 16.4134ZM7.41305 8.0175C7.38355 8.01711 7.28727 8.0107 7.26863 8.00848C6.87051 7.96117 6.51379 7.7398 6.29461 7.4041C6.07539 7.06836 6.01625 6.65273 6.13195 6.27293C6.34871 5.54691 6.71461 4.96465 7.21902 4.51945C7.90969 3.90988 8.81641 3.58656 9.95168 3.58656C11.1482 3.58656 12.0957 3.93207 12.808 4.5832C13.5564 5.2673 13.9257 6.09688 13.9257 7.06746C13.9257 7.63555 13.791 8.15883 13.5247 8.63813C13.2895 9.06156 12.8387 9.58473 12.1542 10.1909C11.8012 10.5038 11.5655 10.7294 11.4572 10.8778C11.3812 10.9819 11.3267 11.1023 11.2901 11.2374C11.2635 11.3357 11.2465 11.4701 11.233 11.64C11.2326 11.6453 11.2321 11.6505 11.2316 11.6559C11.1688 12.2701 10.6903 12.7498 10.0925 12.827C10.0659 12.8304 9.92215 12.8401 9.92215 12.8401C9.55941 12.8401 9.2127 12.6906 8.96367 12.4269C8.71465 12.1631 8.58535 11.8084 8.60551 11.4603C8.60734 11.4118 8.60934 11.3723 8.61137 11.3459C8.64359 10.9301 8.72559 10.5605 8.8498 10.2418C8.97645 9.90789 9.1773 9.56902 9.46117 9.22727C9.64191 9.01133 9.96492 8.6941 10.4344 8.27984C10.7874 7.9684 11.0272 7.73 11.1329 7.54504C11.2016 7.42477 11.2347 7.29316 11.2347 7.15082C11.2347 6.85473 11.1102 6.59856 10.8789 6.37438C10.6329 6.13578 10.3296 6.02059 9.9725 6.02059C9.63309 6.02059 9.34668 6.11855 9.11941 6.33105C8.94031 6.49852 8.81781 6.74133 8.72758 7.05105C8.55309 7.6359 8.01191 8.02574 7.41305 8.0175Z" fill="#BFBFBF"/>
</svg>
