<svg width="16" height="16" viewBox="0 0 16 16" fill="none" xmlns="http://www.w3.org/2000/svg">
<path d="M12.5 16H3.5C2.67333 16 2 15.3273 2 14.5V7.5C2 6.67267 2.67333 6 3.5 6H12.5C13.3267 6 14 6.67267 14 7.5V14.5C14 15.3273 13.3267 16 12.5 16ZM3.5 7C3.22467 7 3 7.224 3 7.5V14.5C3 14.776 3.22467 15 3.5 15H12.5C12.7753 15 13 14.776 13 14.5V7.5C13 7.224 12.7753 7 12.5 7H3.5Z" fill="#8F8F8F"/>
<path d="M11.5 7C11.224 7 11 6.776 11 6.5V4C11 2.346 9.654 1 8 1C6.346 1 5 2.346 5 4V6.5C5 6.776 4.776 7 4.5 7C4.224 7 4 6.776 4 6.5V4C4 1.794 5.794 0 8 0C10.206 0 12 1.794 12 4V6.5C12 6.776 11.776 7 11.5 7Z" fill="#8F8F8F"/>
<path d="M8.16667 11.3335C7.52325 11.3335 7 10.8102 7 10.1668C7 9.52337 7.52325 9.00012 8.16667 9.00012C8.81008 9.00012 9.33333 9.52337 9.33333 10.1668C9.33333 10.8102 8.81008 11.3335 8.16667 11.3335ZM8.16667 9.87512C8.00625 9.87512 7.875 10.0058 7.875 10.1668C7.875 10.3278 8.00625 10.4585 8.16667 10.4585C8.32708 10.4585 8.45833 10.3278 8.45833 10.1668C8.45833 10.0058 8.32708 9.87512 8.16667 9.87512Z" fill="#8F8F8F"/>
<path d="M8.16669 13.0833C7.92519 13.0833 7.72919 12.8873 7.72919 12.6458V11.0416C7.72919 10.8001 7.92519 10.6041 8.16669 10.6041C8.40819 10.6041 8.60419 10.8001 8.60419 11.0416V12.6458C8.60419 12.8873 8.40819 13.0833 8.16669 13.0833Z" fill="#8F8F8F"/>
</svg>
