<svg width="42" height="42" viewBox="0 0 42 42" fill="none" xmlns="http://www.w3.org/2000/svg">
<path d="M19.795 15.0894H3.33977C1.49341 15.0913 -0.00180667 16.5341 1.63849e-06 18.3121V30.5234C1.63849e-06 30.5953 0.00327417 30.6667 0.00833172 30.7383L6.93182 24.0565C6.99257 23.9981 7.06293 23.9497 7.14008 23.9133L7.19571 23.8597C7.33859 23.7214 7.53281 23.6437 7.73538 23.6437C7.93795 23.6437 8.13217 23.7214 8.27505 23.8597L10.57 26.0737L14.3295 22.4462C14.3525 22.4241 14.3768 22.4035 14.4024 22.3843L13.3698 21.3836C13.2091 21.2288 13.1621 20.9955 13.2509 20.7941C13.3397 20.5926 13.5465 20.4631 13.7738 20.4668L17.3108 20.5327C17.6102 20.5385 17.8514 20.7712 17.8567 21.0596L17.9246 24.4725C17.9292 24.6913 17.7953 24.8908 17.5863 24.9766C17.3772 25.0624 17.135 25.0172 16.9743 24.8624L15.7332 23.6646C15.7134 23.6893 15.692 23.7129 15.6692 23.7351L11.4896 27.7686C11.4592 27.8151 11.4236 27.8584 11.3834 27.8975L11.1251 28.1462C10.9822 28.2844 10.788 28.3622 10.5855 28.3622C10.3829 28.3622 10.1887 28.2844 10.0458 28.1462L7.70801 25.8901L0.882098 32.4761C0.845426 32.512 0.804941 32.5441 0.761312 32.5718C1.39414 33.3161 2.3406 33.7473 3.33947 33.7464H7.06897L6.99549 36.6168L10.5019 33.7464H19.795C20.6817 33.7455 21.5317 33.4054 22.158 32.801C22.7843 32.1966 23.1357 31.3773 23.1347 30.5234V18.3121C23.1365 16.5341 21.6413 15.0913 19.795 15.0894Z" fill="white"/>
<path fill-rule="evenodd" clip-rule="evenodd" d="M33.1817 24.6567L36.741 27.5273V27.5262L36.7309 24.6567H38.6959C40.5215 24.6542 42 23.2284 42 21.4704V9.18948C42.0008 8.34411 41.6528 7.53307 41.0325 6.93487C40.4122 6.33668 39.5705 6.00038 38.6926 6H22.1702C20.3438 6.00395 18.8654 7.43072 18.8652 9.18948V13.814H19.8291C22.3844 13.8226 24.4523 15.8177 24.4565 18.2783V24.6567H33.1817ZM30.4321 18.4622C28.0878 18.4622 26.154 17.1873 26.0309 15.5609L34.8334 15.5612C34.7105 17.1873 32.7765 18.4622 30.4321 18.4622ZM34.8768 11.1569C34.354 11.1582 33.9308 11.5667 33.9308 12.0702V12.7146C33.9308 13.2178 34.3544 13.6257 34.877 13.6257C35.3996 13.6257 35.8232 13.2178 35.8232 12.7146V12.07C35.823 11.5664 35.3997 11.158 34.8768 11.1569ZM25.042 12.0702C25.042 11.5667 25.4652 11.1582 25.988 11.1569C26.5109 11.158 26.9342 11.5664 26.9344 12.07V12.6467C26.9344 13.1499 26.5108 13.5578 25.9882 13.5578C25.4656 13.5578 25.042 13.1499 25.042 12.6467V12.0702Z" fill="white"/>
</svg>
