<svg width="38" height="38" viewBox="0 0 38 38" fill="none" xmlns="http://www.w3.org/2000/svg">
<path d="M37.9998 19.7071C37.9998 30.717 30.3365 36.9046 18.9999 36.9046C7.66329 36.9046 0 30.717 0 19.7071C0 8.27894 7.24529 0 18.9999 0C30.7545 0 37.9998 8.27894 37.9998 19.7071Z" fill="#FED132"/>
<path d="M9.18329 19.6703C13.4393 20.8635 15.6813 21.5401 18.9999 21.5401C22.2932 21.5524 24.6619 20.8143 28.8165 19.6703C29.8932 19.375 30.8812 20.2485 30.7292 21.2818C29.9565 26.0794 24.9785 30.1389 19.0126 30.1512C13.0466 30.1635 8.0433 26.0917 7.29597 21.2818C7.11864 20.2362 8.14463 19.375 9.18329 19.6703Z" fill="#802D21"/>
<path d="M22.0525 24.8125C21.7232 24.3204 20.9632 23.9514 20.3679 23.9883C19.4179 24.0375 18.5566 24.0252 17.6446 23.9883C16.9732 23.9637 16.3272 24.2712 15.9599 24.8125C14.7946 26.547 13.3506 29.4624 13.3126 33.2144C13.2873 35.6009 15.4659 37.7291 18.4046 37.9751C21.8245 38.258 24.7125 36.093 24.7125 33.3866C24.6999 29.5486 23.2305 26.5839 22.0525 24.8125Z" fill="#7CB463"/>
<path d="M15.048 10.2103H16.3146C16.3146 8.89402 15.4153 7.57776 13.4646 7.34403V6.06467H12.198V7.33173C10.1207 7.55315 9.34799 8.84482 9.34799 10.0627C9.34799 11.6988 10.83 12.2769 12.198 12.6706V15.8444C11.1973 15.6722 10.6147 15.094 10.6147 14.2083H9.34799C9.34799 15.5246 10.2473 16.8408 12.198 17.0745V18.3539H13.4646V17.0992C15.542 16.8777 16.3146 15.5861 16.3146 14.3682C16.3146 12.7321 14.8326 12.1539 13.4646 11.748V8.58648C14.4526 8.7464 15.048 9.33688 15.048 10.2103ZM10.6147 10.0627C10.6147 9.05394 11.3746 8.6849 12.198 8.57418V11.3912C11.1213 11.0468 10.6147 10.7147 10.6147 10.0627ZM15.048 14.3682C15.048 15.3769 14.288 15.746 13.4646 15.8567V13.0396C14.5286 13.3841 15.048 13.7039 15.048 14.3682Z" fill="#802D21"/>
<path d="M20.5112 29.3297H21.3749C21.3749 28.3122 20.7617 27.2947 19.4317 27.114V26.1251H18.5681V27.1045C17.1517 27.2757 16.6249 28.2742 16.6249 29.2156C16.6249 30.4804 17.6354 30.9273 18.5681 31.2316V33.6851C17.8858 33.5519 17.4885 33.105 17.4885 32.4203H16.6249C16.6249 33.4378 17.2381 34.4553 18.5681 34.636V35.625H19.4317V34.655C20.8481 34.4839 21.3749 33.4854 21.3749 32.5439C21.3749 31.2792 20.3644 30.8322 19.4317 30.5184V28.0745C20.1053 28.1981 20.5112 28.6546 20.5112 29.3297ZM17.4885 29.2156C17.4885 28.4359 18.0067 28.1506 18.5681 28.065V30.2427C17.834 29.9764 17.4885 29.7196 17.4885 29.2156ZM20.5112 32.5439C20.5112 33.3237 19.9931 33.609 19.4317 33.6946V31.5169C20.1572 31.7832 20.5112 32.0304 20.5112 32.5439Z" fill="#2E5E04"/>
<path d="M25.8145 11.748V8.58648C26.8152 8.75871 27.3979 9.33688 27.3979 10.2226H28.6645C28.6645 8.90632 27.7652 7.59006 25.8145 7.35633V6.06467H24.5479V7.33173C22.4706 7.55315 21.6979 8.84482 21.6979 10.0627C21.6979 11.6988 23.1799 12.2769 24.5479 12.6706V15.8444C23.5472 15.6722 22.9646 15.094 22.9646 14.2083H21.6979C21.6979 15.5246 22.5972 16.8408 24.5479 17.0745V18.3539H25.8145V17.0992C27.8919 16.8777 28.6645 15.5861 28.6645 14.3682C28.6645 12.7321 27.1825 12.1539 25.8145 11.748ZM22.9646 10.0627C22.9646 9.05394 23.7245 8.6849 24.5479 8.57418V11.3912C23.4712 11.0468 22.9646 10.7147 22.9646 10.0627ZM25.8145 15.8567V13.0396C26.8785 13.3841 27.3979 13.7039 27.3979 14.3559C27.3979 15.3769 26.6252 15.746 25.8145 15.8567Z" fill="#802D21"/>
</svg>
