<svg width="38" height="38" viewBox="0 0 38 38" fill="none" xmlns="http://www.w3.org/2000/svg">
<path d="M37.9296 20.0613C37.9296 31.2691 30.288 37.568 18.9835 37.568C7.67909 37.568 0.037529 31.2691 0.037529 20.0613C0.037529 8.42776 7.26228 0 18.9835 0C30.7048 0 37.9296 6.72467 37.9296 20.0613Z" fill="#FED132"/>
<path d="M32.5491 15.716C35.5046 15.1023 37.0329 11.7964 35.6941 9.07894C32.7133 3.04301 26.8652 0 18.9837 0C11.4685 0 5.82254 3.46878 2.72803 9.01632C1.22497 11.7087 2.80381 15.1524 5.80991 15.7535C12.8073 17.1686 25.6653 17.1561 32.5491 15.716Z" fill="#28BEEF"/>
<path d="M12.0369 20.3494C15.176 20.3494 17.7207 17.5461 17.7207 14.088C17.7207 10.63 15.176 7.82672 12.0369 7.82672C8.89785 7.82672 6.35312 10.63 6.35312 14.088C6.35312 17.5461 8.89785 20.3494 12.0369 20.3494Z" fill="white"/>
<path d="M13.6187 14.098C13.6198 13.2333 12.9139 12.5315 12.0419 12.5303C11.1699 12.5292 10.4622 13.2292 10.461 14.0939C10.4599 14.9585 11.1658 15.6604 12.0378 15.6615C12.9098 15.6626 13.6176 14.9626 13.6187 14.098Z" fill="#170F02"/>
<path d="M25.9432 20.3494C29.0823 20.3494 31.627 17.5461 31.627 14.088C31.627 10.63 29.0823 7.82672 25.9432 7.82672C22.8041 7.82672 20.2594 10.63 20.2594 14.088C20.2594 17.5461 22.8041 20.3494 25.9432 20.3494Z" fill="white"/>
<path d="M27.5164 14.0895C27.5175 13.2249 26.8116 12.523 25.9396 12.5219C25.0676 12.5208 24.3598 13.2208 24.3587 14.0855C24.3576 14.9501 25.0635 15.652 25.9355 15.6531C26.8074 15.6542 27.5152 14.9542 27.5164 14.0895Z" fill="#170F02"/>
<path d="M18.9964 20.3118C16.3566 20.3118 14.3357 22.6661 14.7778 25.2458L15.3209 28.4891C16.0156 32.5841 21.9899 32.5841 22.672 28.4891L23.2151 25.2458C23.6445 22.6661 21.6363 20.3118 18.9964 20.3118Z" fill="#802D21"/>
<path d="M21.5225 28.7397C21.5225 29.7792 20.5626 30.3053 18.9964 30.3053C17.4302 30.3053 16.4702 29.7792 16.4702 28.7397C16.4702 27.7001 18.2764 27.0864 18.9964 27.8003C19.7416 27.0614 21.5225 27.7126 21.5225 28.7397Z" fill="#F55151"/>
</svg>
